<?xml version="1.0" standalone="no"?>
<!DOCTYPE svg PUBLIC "-//W3C//DTD SVG 20010904//EN"
 "http://www.w3.org/TR/2001/REC-SVG-20010904/DTD/svg10.dtd">
<svg version="1.0" xmlns="http://www.w3.org/2000/svg"
 width="2048.000000pt" height="2048.000000pt" viewBox="0 0 2048.000000 2048.000000"
 preserveAspectRatio="xMidYMid meet">
<metadata>
Created by potrace 1.14, written by Peter Selinger 2001-2017
</metadata>
<g transform="translate(0.000000,2048.000000) scale(0.100000,-0.100000)"
fill="#000000" stroke="none">
<path d="M12775 16230 c-373 -32 -671 -176 -956 -460 -196 -195 -319 -363
-499 -675 -87 -152 -278 -526 -367 -720 -23 -49 -58 -126 -78 -170 -36 -77
-166 -363 -207 -455 -11 -25 -32 -72 -47 -105 -15 -33 -99 -223 -186 -423
l-160 -362 -55 -21 c-107 -41 -396 -141 -510 -176 -374 -115 -734 -196 -1040
-233 -52 -6 -128 -16 -168 -21 -98 -12 -453 -12 -528 1 -143 24 -184 35 -266
70 -47 20 -116 58 -152 84 -304 217 -371 695 -170 1201 35 89 73 159 140 261
73 112 73 111 137 83 78 -35 271 -39 388 -10 229 58 392 196 364 310 -54 223
-563 330 -1007 211 -390 -104 -694 -385 -885 -820 -75 -169 -108 -293 -130
-487 -16 -132 -16 -152 -1 -265 27 -211 99 -377 221 -515 189 -213 449 -353
817 -442 249 -60 416 -79 745 -88 375 -9 771 23 1178 97 31 5 81 14 110 19 53
10 135 27 197 41 19 4 58 13 85 19 28 5 93 21 145 35 52 13 97 22 99 20 8 -8
-19 -73 -179 -424 -371 -815 -700 -1463 -965 -1900 -30 -50 -55 -92 -55 -94 0
-7 -240 -387 -327 -520 -199 -300 -427 -616 -627 -866 -126 -157 -305 -370
-313 -370 -9 0 -65 49 -163 144 -633 612 -947 818 -1378 908 -91 19 -139 22
-322 23 -220 0 -294 -8 -435 -47 -325 -89 -524 -268 -695 -622 -94 -195 -154
-387 -206 -654 -34 -173 -43 -476 -19 -643 77 -544 371 -863 905 -983 638
-142 1328 33 2087 531 78 51 147 93 153 93 6 0 46 -26 88 -58 247 -188 766
-544 1052 -722 149 -93 344 -211 393 -239 18 -10 106 -61 197 -113 226 -130
237 -136 479 -264 233 -124 496 -254 691 -344 222 -102 241 -110 245 -110 2 0
30 -11 60 -26 97 -44 474 -190 630 -244 293 -100 712 -218 980 -275 142 -30
168 -35 310 -60 320 -54 463 -72 715 -90 463 -33 818 -15 1256 64 288 52 660
197 874 341 237 159 390 312 549 548 97 144 241 416 241 455 0 86 -202 153
-386 128 -105 -15 -189 -56 -228 -113 -167 -243 -396 -502 -555 -628 -223
-176 -483 -296 -762 -354 -172 -36 -521 -49 -718 -26 -215 24 -267 32 -436 66
-73 15 -98 20 -205 44 -277 60 -785 237 -1120 390 -95 44 -544 270 -584 294
-11 8 -57 33 -101 56 -598 318 -1452 845 -2025 1248 -391 276 -870 642 -870
666 0 6 74 83 163 171 396 387 715 759 1063 1240 300 414 632 940 884 1400 18
33 46 85 63 115 111 200 375 725 490 975 30 66 72 156 92 200 104 226 494
1144 518 1220 5 13 47 40 124 77 683 334 1313 792 1704 1238 280 320 498 695
594 1020 40 138 49 205 49 365 0 172 -11 229 -71 351 -100 204 -324 344 -643
400 -95 17 -358 25 -475 14z m144 -704 c16 -63 14 -217 -4 -310 -66 -342 -306
-752 -645 -1100 -153 -157 -327 -313 -337 -302 -11 10 208 508 349 791 146
295 242 464 380 667 81 119 224 298 238 298 4 0 13 -20 19 -44z m-7110 -7135
c72 -74 202 -212 251 -266 198 -219 416 -449 573 -602 l186 -182 -72 -63
c-280 -247 -624 -485 -845 -584 -42 -20 -86 -39 -97 -45 -44 -20 -140 -49
-165 -49 -26 0 -93 42 -134 84 -159 162 -245 433 -246 770 0 82 5 179 10 215
41 271 85 422 171 594 41 81 127 213 168 256 l31 34 63 -59 c34 -32 82 -78
106 -103z"/>
</g>
</svg>
